<svg xmlns="http://www.w3.org/2000/svg" viewBox="0 0 64 64">
  <style>
    .tile { fill: #f1f2f0; }
    .glyph { fill: #14181d; }
    @media (prefers-color-scheme: dark) {
      .tile { fill: #13161a; }
      .glyph { fill: #e4e6e2; }
    }
  </style>
  <rect class="tile" x="2" y="2" width="60" height="60" rx="16"/>
  <rect x="6" y="6" width="52" height="52" rx="13" fill="none" stroke="#86B39C" stroke-width="3"/>
  <path class="glyph" d="M16.764830508474574 25.715042372881353V28.99258474576271H28.398305084745765V25.715042372881353ZM16.98093220338983 15.8103813559322V19.051906779661014H28.470338983050848V15.8103813559322ZM16.764830508474574 30.649364406779657V33.89088983050847H28.398305084745765V30.649364406779657ZM15.0 20.63665254237288V24.058262711864405H29.802966101694913V20.63665254237288ZM31.24364406779661 16.494703389830505V20.600635593220336H42.733050847457626V28.128177966101692H31.351694915254235V42.35487288135593C31.351694915254235 46.965042372881356 32.720338983050844 48.18961864406779 37.186440677966104 48.18961864406779C38.1228813559322 48.18961864406779 42.15677966101695 48.18961864406779 43.16525423728814 48.18961864406779C47.271186440677965 48.18961864406779 48.45974576271187 46.42478813559322 49.0 40.44597457627118C47.811440677966104 40.193855932203384 45.9385593220339 39.4375 45.0021186440678 38.75317796610169C44.75 43.25529661016949 44.4978813559322 44.119703389830505 42.84110169491525 44.119703389830505C41.86864406779661 44.119703389830505 38.51906779661017 44.119703389830505 37.726694915254235 44.119703389830505C35.9978813559322 44.119703389830505 35.70974576271186 43.867584745762706 35.70974576271186 42.318855932203384V32.23411016949152H42.733050847457626V34.034957627118644H47.05508474576271V16.494703389830505ZM16.656779661016948 35.619703389830505V48.00953389830508H20.402542372881356V46.60487288135593H28.290254237288135V35.619703389830505ZM20.402542372881356 39.041313559322035H24.472457627118644V43.1832627118644H20.402542372881356Z"/>
</svg>
